<svg version="1.1" viewBox="0 0 16 16" width="16" height="16" xmlns="http://www.w3.org/2000/svg"><linearGradient id="a" x1="604.25" x2="0" y1="531" y2="2.3068e-5" gradientUnits="userSpaceOnUse"><stop style="stop-color:#4d78cc" offset="0"/><stop style="stop-color:#7996cf" offset="1"/></linearGradient><g transform="matrix(.10008 0 0 .10008 -3.4995 -.3862)"><path transform="matrix(.26458 0 0 .26458 34.967 13.574)" d="m23.75 0-23.75 41.25h375.46c68.382 0.39939 91.936 0.69281 97.232 1.0742 0.72644 0.10654 1.2715 0.21892 1.6309 0.33789 0.4237 0.85094-1.4718 4.8685-14.518 27.838l-142.31 245.75 24.75 42.5 206.5-358.75h-525zm557 17.75-234.94 405.61c-0.20006 0.30948-0.41873 0.65272-0.59766 0.92383-0.13276 0.20199-0.29211 0.45069-0.4082 0.62305-0.2078 0.30923-0.34937 0.49544-0.52734 0.75-0.1371 0.1898-0.30913 0.44247-0.40821 0.56445l-1.2402 1.5254c-0.12776 0.11451-0.23473 0.18892-0.32617 0.23242-0.10152 5.4e-4 -0.20345-0.0202-0.30469-0.0605-0.58746-0.75298-1.7646-2.5457-3.4512-5.2363-0.82537-1.3393-1.9668-3.2311-3.1016-5.1113l-3.623-6.0859-148.82-256.98h-48.5l73.25 127.5 134.5 231.25 262-454.25-23.5-41.25zm-580.75 59 262 454.25h48.5l-230.02-399.21c-1.9649-3.4831-3.8903-6.9005-4.9922-8.8906-0.81339-1.7515-1.2692-3.1182-1.1191-3.4609 0.17348-0.0386 0.36992-0.0772 0.64258-0.11329 0.52467-0.026 1.3278-0.052 2.7129-0.0781h313.03l23.5-42.5h-414.25z" style="fill:url(#a)"/></g></svg>
