<svg viewBox="0 0 159.87 140.49" xmlns="http://www.w3.org/2000/svg" width="32" height="32"><linearGradient id="a" x1="604.25" x2="0" y1="531" y2="0" gradientUnits="userSpaceOnUse"><stop offset="0" stop-color="#1e51b3"/><stop offset="1" stop-color="#7996cf"/></linearGradient><path transform="scale(.26458)" d="M23.75 0L0 41.25h375.46c68.382.4 91.936.693 97.232 1.074.726.107 1.272.22 1.63.338.425.851-1.47 4.869-14.517 27.838l-142.31 245.75 24.75 42.5L548.745 0h-525zm557 17.75L345.81 423.36c-.2.31-.419.653-.598.924-.132.202-.292.45-.408.623-.208.31-.35.495-.527.75-.137.19-.31.442-.408.564l-1.24 1.526a1.436 1.436 0 0 1-.327.232.808.808 0 0 1-.304-.06c-.588-.753-1.765-2.546-3.452-5.237-.825-1.339-1.966-3.23-3.101-5.111l-3.623-6.086-148.82-256.98h-48.5l73.25 127.5 134.5 231.25 262-454.25-23.5-41.25zM0 76.75L262 531h48.5L80.48 131.79c-1.965-3.483-3.89-6.9-4.992-8.89-.814-1.752-1.27-3.119-1.12-3.461.174-.04.37-.078.643-.114a93.846 93.846 0 0 1 2.713-.078h313.03l23.5-42.5H.004z" fill="url(#a)"/></svg>
